<svg width="43" height="43" viewBox="0 0 43 43" fill="none" xmlns="http://www.w3.org/2000/svg">
<path d="M15.6796 13.3204L16.2929 12.7071C16.6834 12.3166 17.3166 12.3166 17.7071 12.7071L20.2929 15.2929C20.6834 15.6834 20.6834 16.3166 20.2929 16.7071L18.5005 18.4995C18.2016 18.7984 18.1275 19.255 18.3165 19.6331C19.4093 21.8186 21.1814 23.5907 23.3669 24.6835C23.745 24.8725 24.2016 24.7984 24.5005 24.4995L26.2929 22.7071C26.6834 22.3166 27.3166 22.3166 27.7071 22.7071L30.2929 25.2929C30.6834 25.6834 30.6834 26.3166 30.2929 26.7071L29.6796 27.3204C27.5683 29.4317 24.2257 29.6693 21.837 27.8777L20.6286 26.9714C18.885 25.6638 17.3362 24.115 16.0286 22.3714L15.1223 21.163C13.3307 18.7743 13.5683 15.4317 15.6796 13.3204Z" fill="white"/>
</svg>
